Hind-Bold.ufo
<glyph name="numbersign" format="1">
  <advance width="757"/>
  <unicode hex="0023"/>
  <outline>
    <contour>
      <point x="496" y="0" type="line"/>
      <point x="639" y="673" type="line"/>
      <point x="515" y="673" type="line"/>
      <point x="373" y="0" type="line"/>
    </contour>
    <contour>
      <point x="678" y="154" type="line"/>
      <point x="678" y="265" type="line"/>
      <point x="45" y="265" type="line"/>
      <point x="45" y="154" type="line"/>
    </contour>
    <contour>
      <point x="236" y="0" type="line"/>
      <point x="379" y="673" type="line"/>
      <point x="255" y="673" type="line"/>
      <point x="113" y="0" type="line"/>
    </contour>
    <contour>
      <point x="712" y="400" type="line"/>
      <point x="712" y="516" type="line"/>
      <point x="79" y="516" type="line"/>
      <point x="79" y="400" type="line"/>
    </contour>
  </outline>
</glyph>
<glyph name="comma" format="1">
  <advance width="294"/>
  <unicode hex="002C"/>
  <outline>
    <contour>
      <point x="119" y="-127" type="line"/>
      <point x="255" y="134" type="line"/>
      <point x="94" y="134" type="line"/>
      <point x="-7" y="-127" type="line"/>
    </contour>
  </outline>
</glyph>
<glyph name="hyphen" format="1">
  <advance width="357"/>
  <unicode hex="002D"/>
  <outline>
    <contour>
      <point x="312" y="202" type="line"/>
      <point x="312" y="322" type="line"/>
      <point x="45" y="322" type="line"/>
      <point x="45" y="202" type="line"/>
    </contour>
  </outline>
</glyph>
<glyph name="one" format="1">
  <advance width="380"/>
  <unicode hex="0031"/>
  <outline>
    <contour>
      <point x="320" y="0" type="line"/>
      <point x="320" y="654" type="line"/>
      <point x="194" y="654" type="line"/>
      <point x="10" y="547" type="line"/>
      <point x="10" y="398" type="line"/>
      <point x="175" y="497" type="line"/>
      <point x="175" y="0" type="line"/>
    </contour>
  </outline>
</glyph>
<glyph name="three" format="1">
  <advance width="483"/>
  <unicode hex="0033"/>
  <outline>
    <contour>
      <point x="362" y="-5"/>
      <point x="448" y="71"/>
      <point x="448" y="180" type="curve" smooth="yes"/>
      <point x="448" y="287"/>
      <point x="372" y="342"/>
      <point x="251" y="335" type="curve"/>
      <point x="251" y="311" type="line"/>
      <point x="369" y="318"/>
      <point x="435" y="383"/>
      <point x="435" y="481" type="curve" smooth="yes"/>
      <point x="435" y="587"/>
      <point x="348" y="663"/>
      <point x="205" y="663" type="curve" smooth="yes"/>
      <point x="149" y="663"/>
      <point x="92" y="644"/>
      <point x="56" y="626" type="curve"/>
      <point x="56" y="490" type="line"/>
      <point x="90" y="511"/>
      <point x="146" y="533"/>
      <point x="195" y="533" type="curve" smooth="yes"/>
      <point x="248" y="533"/>
      <point x="285" y="513"/>
      <point x="285" y="464" type="curve" smooth="yes"/>
      <point x="285" y="413"/>
      <point x="229" y="392"/>
      <point x="164" y="392" type="curve"/>
      <point x="164" y="272" type="line"/>
      <point x="269" y="272"/>
      <point x="299" y="238"/>
      <point x="299" y="199" type="curve" smooth="yes"/>
      <point x="299" y="158"/>
      <point x="263" y="125"/>
      <point x="195" y="125" type="curve" smooth="yes"/>
      <point x="129" y="125"/>
      <point x="77" y="143"/>
      <point x="30" y="169" type="curve"/>
      <point x="30" y="29" type="line"/>
      <point x="75" y="7"/>
      <point x="145" y="-5"/>
      <point x="207" y="-5" type="curve" smooth="yes"/>
    </contour>
    <contour>
      <point x="288" y="272" type="line"/>
      <point x="288" y="392" type="line"/>
      <point x="129" y="392" type="line"/>
      <point x="129" y="272" type="line"/>
    </contour>
  </outline>
</glyph>
<glyph name="seven" format="1">
  <advance width="480"/>
  <unicode hex="0037"/>
  <outline>
    <contour>
      <point x="206" y="0" type="line"/>
      <point x="460" y="531" type="line"/>
      <point x="307" y="531" type="line"/>
      <point x="52" y="0" type="line"/>
    </contour>
    <contour>
      <point x="460" y="531" type="line"/>
      <point x="460" y="655" type="line"/>
      <point x="20" y="655" type="line"/>
      <point x="20" y="531" type="line"/>
    </contour>
  </outline>
</glyph>
<glyph name="semicolon" format="1">
  <advance width="294"/>
  <unicode hex="003B"/>
  <outline>
    <contour>
      <point x="119" y="-127" type="line"/>
      <point x="255" y="134" type="line"/>
      <point x="94" y="134" type="line"/>
      <point x="-7" y="-127" type="line"/>
    </contour>
    <contour>
      <point x="210" y="331"/>
      <point x="249" y="370"/>
      <point x="249" y="419" type="curve" smooth="yes"/>
      <point x="249" y="468"/>
      <point x="210" y="507"/>
      <point x="161" y="507" type="curve" smooth="yes"/>
      <point x="112" y="507"/>
      <point x="73" y="468"/>
      <point x="73" y="419" type="curve" smooth="yes"/>
      <point x="73" y="370"/>
      <point x="112" y="331"/>
      <point x="161" y="331" type="curve" smooth="yes"/>
    </contour>
  </outline>
</glyph>
<glyph name="A" format="1">
  <advance width="690"/>
  <unicode hex="0041"/>
  <outline>
    <contour>
      <point x="184" y="0" type="line"/>
      <point x="269" y="286" type="line" smooth="yes"/>
      <point x="335" y="507"/>
      <point x="343" y="562"/>
      <point x="343" y="562" type="curve"/>
      <point x="343" y="562"/>
      <point x="351" y="507"/>
      <point x="417" y="286" type="curve" smooth="yes"/>
      <point x="502" y="0" type="line"/>
      <point x="667" y="0" type="line"/>
      <point x="442" y="674" type="line"/>
      <point x="248" y="674" type="line"/>
      <point x="23" y="0" type="line"/>
    </contour>
    <contour>
      <point x="514" y="138" type="line"/>
      <point x="514" y="262" type="line"/>
      <point x="199" y="262" type="line"/>
      <point x="199" y="138" type="line"/>
    </contour>
  </outline>
</glyph>
<glyph name="E" format="1">
  <advance width="544"/>
  <unicode hex="0045"/>
  <outline>
    <contour>
      <point x="220" y="0" type="line"/>
      <point x="220" y="674" type="line"/>
      <point x="65" y="674" type="line"/>
      <point x="65" y="0" type="line"/>
    </contour>
    <contour>
      <point x="484" y="0" type="line"/>
      <point x="484" y="123" type="line"/>
      <point x="123" y="123" type="line"/>
      <point x="123" y="0" type="line"/>
    </contour>
    <contour>
      <point x="452" y="276" type="line"/>
      <point x="452" y="398" type="line"/>
      <point x="123" y="398" type="line"/>
      <point x="123" y="276" type="line"/>
    </contour>
    <contour>
      <point x="480" y="551" type="line"/>
      <point x="480" y="674" type="line"/>
      <point x="123" y="674" type="line"/>
      <point x="123" y="551" type="line"/>
    </contour>
  </outline>
</glyph>
<glyph name="H" format="1">
  <advance width="686"/>
  <unicode hex="0048"/>
  <outline>
    <contour>
      <point x="621" y="0" type="line"/>
      <point x="621" y="674" type="line"/>
      <point x="466" y="674" type="line"/>
      <point x="466" y="0" type="line"/>
    </contour>
    <contour>
      <point x="219" y="0" type="line"/>
      <point x="219" y="674" type="line"/>
      <point x="65" y="674" type="line"/>
      <point x="65" y="0" type="line"/>
    </contour>
    <contour>
      <point x="527" y="269" type="line"/>
      <point x="527" y="400" type="line"/>
      <point x="134" y="400" type="line"/>
      <point x="134" y="269" type="line"/>
    </contour>
  </outline>
</glyph>
<glyph name="L" format="1">
  <advance width="488"/>
  <unicode hex="004C"/>
  <outline>
    <contour>
      <point x="219" y="0" type="line"/>
      <point x="219" y="674" type="line"/>
      <point x="65" y="674" type="line"/>
      <point x="65" y="0" type="line"/>
    </contour>
    <contour>
      <point x="468" y="0" type="line"/>
      <point x="468" y="135" type="line"/>
      <point x="123" y="135" type="line"/>
      <point x="123" y="0" type="line"/>
    </contour>
  </outline>
</glyph>
<glyph name="X" format="1">
  <advance width="663"/>
  <unicode hex="0058"/>
  <outline>
    <contour>
      <point x="213" y="0" type="line"/>
      <point x="331" y="210" type="line"/>
      <point x="453" y="0" type="line"/>
      <point x="636" y="0" type="line"/>
      <point x="419" y="341" type="line"/>
      <point x="623" y="674" type="line"/>
      <point x="435" y="674" type="line"/>
      <point x="328" y="477" type="line"/>
      <point x="216" y="674" type="line"/>
      <point x="37" y="674" type="line"/>
      <point x="240" y="342" type="line"/>
      <point x="27" y="0" type="line"/>
    </contour>
  </outline>
</glyph>
<glyph name="j" format="1">
  <advance width="274"/>
  <unicode hex="006A"/>
  <outline>
    <contour>
      <point x="155" y="-198"/>
      <point x="214" y="-125"/>
      <point x="214" y="-21" type="curve" smooth="yes"/>
      <point x="214" y="507" type="line"/>
      <point x="69" y="507" type="line"/>
      <point x="69" y="-19" type="line"/>
      <point x="69" y="-68"/>
      <point x="47" y="-86"/>
      <point x="17" y="-86" type="curve" smooth="yes"/>
      <point x="0" y="-86"/>
      <point x="-20" y="-80"/>
      <point x="-40" y="-71" type="curve"/>
      <point x="-40" y="-182" type="line"/>
      <point x="-7" y="-194"/>
      <point x="16" y="-198"/>
      <point x="39" y="-198" type="curve" smooth="yes"/>
    </contour>
    <contour>
      <point x="188" y="569"/>
      <point x="226" y="607"/>
      <point x="226" y="654" type="curve" smooth="yes"/>
      <point x="226" y="701"/>
      <point x="188" y="739"/>
      <point x="141" y="739" type="curve" smooth="yes"/>
      <point x="94" y="739"/>
      <point x="56" y="701"/>
      <point x="56" y="654" type="curve" smooth="yes"/>
      <point x="56" y="607"/>
      <point x="94" y="569"/>
      <point x="141" y="569" type="curve" smooth="yes"/>
    </contour>
  </outline>
</glyph>
<glyph name="z" format="1">
  <advance width="479"/>
  <unicode hex="007A"/>
  <outline>
    <contour>
      <point x="439" y="0" type="line"/>
      <point x="439" y="113" type="line"/>
      <point x="205" y="113" type="line"/>
      <point x="427" y="406" type="line"/>
      <point x="427" y="507" type="line"/>
      <point x="49" y="507" type="line"/>
      <point x="49" y="395" type="line"/>
      <point x="262" y="395" type="line"/>
      <point x="40" y="105" type="line"/>
      <point x="40" y="0" type="line"/>
    </contour>
  </outline>
</glyph>
<glyph name="sterling" format="1">
  <advance width="540"/>
  <unicode hex="00A3"/>
  <outline>
    <contour>
      <point x="507" y="0" type="line"/>
      <point x="507" y="123" type="line"/>
      <point x="215" y="123" type="line"/>
      <point x="264" y="154"/>
      <point x="276" y="200"/>
      <point x="276" y="250" type="curve" smooth="yes"/>
      <point x="276" y="301"/>
      <point x="263" y="361"/>
      <point x="263" y="414" type="curve" smooth="yes"/>
      <point x="263" y="490"/>
      <point x="298" y="523"/>
      <point x="368" y="523" type="curve" smooth="yes"/>
      <point x="405" y="523"/>
      <point x="444" y="510"/>
      <point x="472" y="490" type="curve"/>
      <point x="472" y="628" type="line"/>
      <point x="441" y="647"/>
      <point x="394" y="660"/>
      <point x="335" y="660" type="curve" smooth="yes"/>
      <point x="176" y="660"/>
      <point x="101" y="567"/>
      <point x="101" y="420" type="curve" smooth="yes"/>
      <point x="101" y="368"/>
      <point x="118" y="307"/>
      <point x="118" y="251" type="curve" smooth="yes"/>
      <point x="118" y="199"/>
      <point x="103" y="151"/>
      <point x="45" y="121" type="curve"/>
      <point x="45" y="0" type="line"/>
    </contour>
    <contour>
      <point x="431" y="267" type="line"/>
      <point x="431" y="373" type="line"/>
      <point x="44" y="373" type="line"/>
      <point x="44" y="267" type="line"/>
    </contour>
  </outline>
</glyph>
<glyph name="logicalnot" format="1">
  <advance width="603"/>
  <unicode hex="00AC"/>
  <outline>
    <contour>
      <point x="558" y="136" type="line"/>
      <point x="558" y="417" type="line"/>
      <point x="45" y="417" type="line"/>
      <point x="45" y="301" type="line"/>
      <point x="438" y="301" type="line"/>
      <point x="438" y="136" type="line"/>
    </contour>
  </outline>
</glyph>
<glyph name="multiply" format="1">
  <advance width="530"/>
  <unicode hex="00D7"/>
  <outline>
    <contour>
      <point x="487" y="209" type="line"/>
      <point x="134" y="561" type="line"/>
      <point x="42" y="469" type="line"/>
      <point x="395" y="117" type="line"/>
    </contour>
    <contour>
      <point x="485" y="466" type="line"/>
      <point x="390" y="560" type="line"/>
      <point x="43" y="213" type="line"/>
      <point x="138" y="119" type="line"/>
    </contour>
  </outline>
</glyph>
<glyph name="lslash" format="1">
  <advance width="341"/>
  <unicode hex="0142"/>
  <outline>
    <contour>
      <point x="248" y="0" type="line"/>
      <point x="248" y="707" type="line"/>
      <point x="102" y="707" type="line"/>
      <point x="102" y="0" type="line"/>
    </contour>
    <contour>
      <point x="331" y="419" type="line"/>
      <point x="331" y="540" type="line"/>
      <point x="25" y="331" type="line"/>
      <point x="25" y="210" type="line"/>
    </contour>
  </outline>
</glyph>
<glyph name="tcedilla" format="1">
  <advance width="386"/>
  <unicode hex="0163"/>
  <outline>
    <contour>
      <point x="284" y="-5"/>
      <point x="328" y="-1"/>
      <point x="356" y="11" type="curve"/>
      <point x="356" y="132" type="line"/>
      <point x="334" y="118"/>
      <point x="308" y="112"/>
      <point x="285" y="112" type="curve" smooth="yes"/>
      <point x="254" y="112"/>
      <point x="229" y="129"/>
      <point x="229" y="167" type="curve" smooth="yes"/>
      <point x="229" y="627" type="line"/>
      <point x="83" y="627" type="line"/>
      <point x="83" y="168" type="line"/>
      <point x="83" y="56"/>
      <point x="140" y="-5"/>
      <point x="256" y="-5" type="curve" smooth="yes"/>
    </contour>
    <contour>
      <point x="347" y="400" type="line"/>
      <point x="347" y="507" type="line"/>
      <point x="10" y="507" type="line"/>
      <point x="10" y="400" type="line"/>
    </contour>
    <component base="cedilla" xOffset="-50"/>
  </outline>
</glyph>
<glyph name="ring" format="1">
  <advance width="500"/>
  <unicode hex="02DA"/>
  <outline>
    <contour>
      <point x="325" y="574"/>
      <point x="386" y="635"/>
      <point x="386" y="710" type="curve" smooth="yes"/>
      <point x="386" y="785"/>
      <point x="325" y="846"/>
      <point x="250" y="846" type="curve" smooth="yes"/>
      <point x="175" y="846"/>
      <point x="114" y="785"/>
      <point x="114" y="710" type="curve" smooth="yes"/>
      <point x="114" y="635"/>
      <point x="175" y="574"/>
      <point x="250" y="574" type="curve" smooth="yes"/>
    </contour>
    <contour>
      <point x="218" y="657"/>
      <point x="197" y="684"/>
      <point x="197" y="713" type="curve" smooth="yes"/>
      <point x="197" y="742"/>
      <point x="218" y="769"/>
      <point x="250" y="769" type="curve" smooth="yes"/>
      <point x="282" y="769"/>
      <point x="303" y="742"/>
      <point x="303" y="713" type="curve" smooth="yes"/>
      <point x="303" y="684"/>
      <point x="282" y="657"/>
      <point x="250" y="657" type="curve" smooth="yes"/>
    </contour>
  </outline>
</glyph>
<glyph name="pi" format="1">
  <advance width="606"/>
  <unicode hex="03C0"/>
  <outline>
    <contour>
      <point x="182" y="0"/>
      <point x="246" y="51"/>
      <point x="246" y="216" type="curve" smooth="yes"/>
      <point x="246" y="466" type="line"/>
      <point x="100" y="466" type="line"/>
      <point x="100" y="201" type="line"/>
      <point x="100" y="133"/>
      <point x="82" y="119"/>
      <point x="39" y="119" type="curve"/>
      <point x="39" y="0" type="line"/>
    </contour>
    <contour>
      <point x="516" y="0" type="line"/>
      <point x="516" y="466" type="line"/>
      <point x="370" y="466" type="line"/>
      <point x="370" y="0" type="line"/>
    </contour>
    <contour>
      <point x="596" y="400" type="line"/>
      <point x="596" y="507" type="line"/>
      <point x="20" y="507" type="line"/>
      <point x="20" y="400" type="line"/>
    </contour>
  </outline>
</glyph>
<glyph name="fraction" format="1">
  <advance width="264"/>
  <unicode hex="2044"/>
  <outline>
    <contour>
      <point x="-68" y="0" type="line"/>
      <point x="360" y="711" type="line"/>
      <point x="252" y="711" type="line"/>
      <point x="-177" y="0" type="line"/>
    </contour>
  </outline>
</glyph>
